<?xml version="1.0" encoding="UTF-8" standalone="no"?>
<!-- Created with Inkscape (http://www.inkscape.org/) -->

<svg
   version="1.1"
   id="svg2"
   width="333.33334"
   height="200"
   viewBox="0 0 333.33334 200"
   sodipodi:docname="logo white pe black.ai"
   xmlns:inkscape="http://www.inkscape.org/namespaces/inkscape"
   xmlns:sodipodi="http://sodipodi.sourceforge.net/DTD/sodipodi-0.dtd"
   xmlns="http://www.w3.org/2000/svg"
   xmlns:svg="http://www.w3.org/2000/svg">
  <defs
     id="defs6">
    <clipPath
       clipPathUnits="userSpaceOnUse"
       id="clipPath16">
      <path
         d="M 0,150 H 250 V 0 H 0 Z"
         id="path14" />
    </clipPath>
  </defs>
  <sodipodi:namedview
     id="namedview4"
     pagecolor="#ffffff"
     bordercolor="#000000"
     borderopacity="0.25"
     inkscape:showpageshadow="2"
     inkscape:pageopacity="0.0"
     inkscape:pagecheckerboard="0"
     inkscape:deskcolor="#d1d1d1" />
  <g
     id="g8"
     inkscape:groupmode="layer"
     inkscape:label="logo white pe black"
     transform="matrix(1.3333333,0,0,-1.3333333,0,200)">
    <g
       id="g10">
      <g
         id="g12"
         clip-path="url(#clipPath16)">
        <g
           id="g18"
           transform="translate(129.6162,84.7881)">
          <path
             d="m 0,0 c 0,0.077 -0.022,0.055 -0.983,-0.623 -0.513,-0.36 -1.737,-1.157 -2.73,-1.78 -6.849,-4.292 -13.708,-7.437 -20.807,-9.568 -2.84,-0.841 -6.837,-1.747 -8.508,-1.922 -0.896,-0.086 -0.786,-0.185 0.535,-0.436 1.256,-0.23 3.724,-0.23 5.308,0 6.182,0.928 13.936,4.62 22.39,10.66 C -3.233,-2.556 0,-0.076 0,0"
             style="fill:#231f20;fill-opacity:1;fill-rule:nonzero;stroke:none"
             id="path20" />
        </g>
        <g
           id="g22"
           transform="translate(119.2402,29.6211)">
          <path
             d="m 0,0 c -0.186,-1.321 -0.426,-1.9 -1.038,-2.533 -0.732,-0.754 -1.387,-0.95 -2.938,-0.885 -0.928,0.032 -1.19,0.087 -1.66,0.338 -1.114,0.568 -1.583,1.54 -1.791,3.659 -0.142,1.464 -0.142,13.435 0,14.975 0.054,0.622 0.175,1.397 0.273,1.714 0.317,1.114 1.158,1.868 2.348,2.119 0.798,0.164 2.294,0.054 2.938,-0.23 C -0.797,18.699 -0.24,17.792 0,16.165 0.142,15.16 0.142,1.017 0,0 m -0.928,22.292 c -0.448,0.12 -1.224,0.196 -2.512,0.219 -2.218,0.044 -2.96,-0.088 -4.304,-0.733 -1.944,-0.95 -3.025,-2.577 -3.582,-5.427 -0.218,-1.104 -0.339,-12.561 -0.153,-14.942 0.229,-2.96 0.896,-4.783 2.239,-6.105 0.841,-0.83 1.704,-1.311 2.916,-1.65 1.005,-0.283 4.216,-0.295 5.232,-0.01 2.97,0.808 4.642,3.069 5.122,6.958 0.076,0.556 0.12,3.548 0.12,7.481 0,6.738 -0.044,7.678 -0.447,9.283 -0.645,2.556 -2.261,4.271 -4.631,4.926"
             style="fill:#231f20;fill-opacity:1;fill-rule:nonzero;stroke:none"
             id="path24" />
        </g>
        <g
           id="g26"
           transform="translate(138.5068,51.9258)">
          <path
             d="m 0,0 c -0.012,-0.022 -0.973,-4.653 -2.119,-10.3 -1.147,-5.646 -2.119,-10.353 -2.162,-10.452 -0.044,-0.12 -1.005,4.172 -2.317,10.288 L -8.836,0.021 h -1.89 c -1.748,0 -1.889,-0.01 -1.835,-0.185 0.022,-0.109 1.464,-6.553 3.201,-14.308 l 3.145,-14.122 h 1.77 1.769 l 0.12,0.579 c 0.066,0.306 1.486,6.739 3.157,14.275 L 3.626,-0.033 1.835,0 C 0.841,0.011 0.021,0.011 0,0"
             style="fill:#231f20;fill-opacity:1;fill-rule:nonzero;stroke:none"
             id="path28" />
        </g>
        <g
           id="g30"
           transform="translate(149.4395,97.9712)">
          <path
             d="m 0,0 c -0.044,0.699 -0.109,1.278 -0.153,1.267 -0.033,0 -0.578,-0.546 -1.212,-1.212 -1.399,-1.475 -4.249,-4.183 -6.379,-6.04 -8.595,-7.526 -19.19,-14.559 -30.013,-19.911 -1.901,-0.939 -3.463,-1.748 -3.463,-1.78 -0.01,-0.12 1.737,-0.82 3.244,-1.3 1.606,-0.514 4.019,-1.016 5.778,-1.212 1.594,-0.164 5.81,-0.066 7.274,0.163 6.422,1.049 11.905,3.813 16.35,8.257 1.529,1.529 2.435,2.643 3.735,4.588 2.218,3.331 3.758,7.219 4.445,11.26 C -0.088,-4.15 0.087,-1.529 0,0"
             style="fill:#231f20;fill-opacity:1;fill-rule:nonzero;stroke:none"
             id="path32" />
        </g>
        <g
           id="g34"
           transform="translate(90.8433,39.6699)">
          <path
             d="m 0,0 c -3.419,3.015 -3.845,3.44 -4.238,4.292 -0.24,0.514 -0.295,0.819 -0.327,1.78 -0.044,1.005 -0.012,1.224 0.196,1.715 0.47,1.081 1.474,1.66 2.894,1.66 1.431,0 2.501,-0.623 3.048,-1.791 C 1.824,7.143 2.228,5.428 2.315,4.576 L 2.348,4.237 4.03,4.686 5.701,5.133 5.636,5.788 c -0.12,1.114 -0.492,2.469 -0.95,3.419 -0.809,1.671 -2.196,2.731 -4.085,3.135 -1.115,0.229 -3.288,0.207 -4.293,-0.055 -2.293,-0.6 -3.823,-2.195 -4.347,-4.544 -0.273,-1.245 -0.174,-3.506 0.208,-4.685 0.568,-1.758 0.994,-2.25 4.926,-5.723 3.964,-3.517 4.663,-4.293 5.1,-5.69 0.273,-0.885 0.295,-2.512 0.055,-3.255 -0.219,-0.666 -0.732,-1.267 -1.3,-1.584 -0.393,-0.207 -0.634,-0.241 -1.605,-0.241 -0.972,0 -1.213,0.034 -1.595,0.241 -0.568,0.306 -1.147,0.907 -1.518,1.573 -0.35,0.655 -0.809,2.392 -0.896,3.462 -0.054,0.655 -0.098,0.786 -0.24,0.743 -0.098,-0.033 -0.863,-0.23 -1.704,-0.459 -0.841,-0.219 -1.573,-0.437 -1.627,-0.48 -0.044,-0.055 -0.033,-0.514 0.044,-1.06 0.666,-4.762 3.243,-7.252 7.503,-7.241 2.119,0.01 3.713,0.6 4.959,1.845 1.299,1.3 1.878,2.807 1.878,4.926 C 6.16,-8.389 5.931,-7.23 5.396,-6.073 4.576,-4.281 3.506,-3.08 0,0"
             style="fill:#231f20;fill-opacity:1;fill-rule:nonzero;stroke:none"
             id="path36" />
        </g>
        <g
           id="g38"
           transform="translate(37.2056,37.9131)">
          <path
             d="m 0,0 0.153,0.437 c 0.098,0.24 1.441,3.396 3.003,7.022 l 2.84,6.575 H 4.118 L 2.25,14.023 0.295,8.999 C -1.464,4.511 -1.682,3.997 -1.802,4.227 -1.868,4.368 -2.851,6.629 -3.976,9.262 l -2.042,4.772 h -1.857 c -1.726,0 -1.856,-0.011 -1.78,-0.185 0.032,-0.11 1.354,-3.179 2.916,-6.837 l 2.862,-6.63 -2.916,-7.296 c -1.595,-4.008 -2.938,-7.372 -2.982,-7.471 -0.066,-0.185 0.065,-0.196 1.791,-0.196 h 1.857 l 0.109,0.306 c 0.065,0.164 0.939,2.479 1.944,5.155 0.994,2.676 1.846,4.947 1.889,5.067 0.055,0.143 0.688,-1.212 2.25,-4.805 1.191,-2.763 2.239,-5.177 2.327,-5.363 l 0.174,-0.36 h 1.835 c 1.005,0 1.835,0.021 1.835,0.044 0,0.021 -1.409,3.298 -3.123,7.284 z"
             style="fill:#231f20;fill-opacity:1;fill-rule:nonzero;stroke:none"
             id="path40" />
        </g>
        <g
           id="g42"
           transform="translate(18.2339,33.457)">
          <path
             d="m 0,0 c -1.289,-0.012 -2.359,-0.012 -2.381,0 -0.011,0.021 0.503,2.894 1.136,6.389 0.644,3.506 1.19,6.301 1.212,6.225 C 0,12.549 0.535,9.688 1.18,6.258 L 2.337,0.032 Z M 4.87,4.538 1.882,18.49 -0.043,18.523 c -1.773,0.022 -1.937,0.011 -1.992,-0.164 -0.033,-0.109 -1.39,-6.478 -3.02,-14.149 -1.62,-7.671 -2.977,-14.04 -2.999,-14.138 -0.044,-0.186 0.099,-0.197 1.839,-0.197 h 1.89 l 0.284,1.507 c 0.164,0.819 0.48,2.447 0.699,3.604 l 0.404,2.097 h 2.873 c 1.572,0 2.894,-0.043 2.927,-0.087 C 2.895,-3.059 3.2,-4.675 3.55,-6.608 l 0.622,-3.517 H 6.084 7.988 L 7.923,-9.764 C 7.879,-9.578 6.511,-3.133 4.87,4.538"
             style="fill:#231f20;fill-opacity:1;fill-rule:nonzero;stroke:none"
             id="path44" />
        </g>
        <g
           id="g46"
           transform="translate(46.1968,51.9473)">
          <path
             d="m 0,0 v -14.308 -14.307 h 5.57 5.571 v 1.42 1.42 h -3.55 -3.55 v 5.242 5.242 h 2.84 2.84 v 1.42 1.42 h -2.84 -2.84 v 4.751 4.751 h 3.55 3.55 V -1.475 0 L 5.57,0 Z"
             style="fill:#231f20;fill-opacity:1;fill-rule:nonzero;stroke:none"
             id="path48" />
        </g>
        <g
           id="g50"
           transform="translate(64.6548,26.1719)">
          <path
             d="m 0,0 v 12.888 12.887 h -2.021 -2.02 V 11.468 -2.84 h 5.68 5.679 V -1.42 0 L 3.659,0 Z"
             style="fill:#231f20;fill-opacity:1;fill-rule:nonzero;stroke:none"
             id="path52" />
        </g>
        <g
           id="g54"
           transform="translate(74.8125,51.9473)">
          <path
             d="M 0,0 V -14.308 -28.615 H 1.966 3.932 V -14.308 0 H 1.966 Z"
             style="fill:#231f20;fill-opacity:1;fill-rule:nonzero;stroke:none"
             id="path56" />
        </g>
        <g
           id="g58"
           transform="translate(149.1904,26.1719)">
          <path
             d="m 0,0 v 5.242 5.242 h 2.895 2.894 v 1.42 1.42 H 2.895 0 v 4.751 4.751 H 3.55 7.1 v 1.475 1.474 H 1.584 -3.932 V 11.468 -2.84 h 5.571 5.57 V -1.42 0 L 3.604,0 Z"
             style="fill:#231f20;fill-opacity:1;fill-rule:nonzero;stroke:none"
             id="path60" />
        </g>
        <g
           id="g62"
           transform="translate(185.209,39.833)">
          <path
             d="m 0,0 c -3.146,2.753 -3.812,3.452 -4.173,4.369 -0.327,0.852 -0.338,2.567 -0.021,3.277 0.48,1.038 1.278,1.529 2.61,1.617 C -0.47,9.328 0.327,9.109 0.95,8.574 1.726,7.919 2.086,6.979 2.479,4.577 L 2.566,4.074 4.237,4.522 5.908,4.97 5.843,5.625 C 5.712,6.772 5.275,8.269 4.795,9.175 3.965,10.77 2.6,11.807 0.819,12.179 -0.295,12.408 -2.469,12.386 -3.474,12.124 -5.724,11.534 -7.252,9.994 -7.82,7.755 -8.094,6.707 -8.061,4.468 -7.766,3.354 -7.481,2.262 -6.914,1.18 -6.204,0.383 c 0.317,-0.35 1.803,-1.715 3.299,-3.047 2.937,-2.589 3.44,-3.059 4.237,-3.998 0.983,-1.168 1.355,-2.326 1.268,-3.953 -0.11,-2.043 -1.082,-3.026 -3.048,-3.037 -1.081,0 -1.758,0.24 -2.348,0.83 -0.842,0.842 -1.31,2.02 -1.628,4.15 -0.087,0.579 -0.175,1.07 -0.185,1.093 -0.022,0.011 -0.797,-0.186 -1.726,-0.438 l -1.693,-0.458 0.022,-0.764 c 0.044,-1.06 0.481,-2.72 1.027,-3.834 0.895,-1.857 2.588,-3.167 4.63,-3.593 1.268,-0.263 3.211,-0.164 4.37,0.207 2.751,0.906 4.314,3.222 4.314,6.434 0,2.052 -0.404,3.451 -1.464,5.034 C 3.921,-3.561 3.08,-2.697 0,0"
             style="fill:#231f20;fill-opacity:1;fill-rule:nonzero;stroke:none"
             id="path64" />
        </g>
        <g
           id="g66"
           transform="translate(217.9307,33.3906)">
          <path
             d="m 0,0 c -0.021,-0.021 -1.081,-0.021 -2.37,-0.011 l -2.348,0.033 1.147,6.258 c 0.633,3.43 1.179,6.248 1.213,6.248 C -2.293,12.528 0.055,0.055 0,0 M 2.556,4.544 -0.438,18.557 H -2.37 -4.303 l -0.131,-0.568 c -0.896,-4.15 -5.898,-27.807 -5.898,-27.906 0,-0.109 0.415,-0.142 1.856,-0.142 1.028,0 1.858,0.011 1.858,0.033 0,0.098 1.321,6.924 1.365,7.045 0.032,0.098 0.721,0.13 2.938,0.13 h 2.878 l 0.231,-1.287 c 0.133,-0.716 0.43,-2.333 0.661,-3.61 l 0.407,-2.311 H 3.746 L 5.639,-10.08 5.595,-9.785 C 5.572,-9.61 4.206,-3.173 2.556,4.544"
             style="fill:#231f20;fill-opacity:1;fill-rule:nonzero;stroke:none"
             id="path68" />
        </g>
        <g
           id="g70"
           transform="translate(239.7744,32.4609)">
          <path
             d="m 0,0 c -0.349,1.147 -0.797,1.999 -1.66,3.124 -0.906,1.201 -1.136,1.42 -4.434,4.314 -3.91,3.441 -4.216,3.833 -4.314,5.679 -0.076,1.333 0.131,2.075 0.786,2.72 0.558,0.558 1.278,0.819 2.294,0.819 2.227,0 3.396,-1.376 3.724,-4.369 0.033,-0.392 0.087,-0.742 0.11,-0.775 0.032,-0.055 2.642,0.6 3.276,0.819 0.164,0.065 0,1.289 -0.339,2.49 -0.754,2.687 -2.216,4.184 -4.609,4.719 -0.961,0.218 -3.32,0.218 -4.183,0.011 -2.294,-0.558 -3.943,-2.185 -4.489,-4.424 -0.229,-0.896 -0.185,-3.582 0.055,-4.467 0.513,-1.889 1.169,-2.686 4.86,-5.941 5.035,-4.446 5.516,-5.123 5.516,-7.667 0,-1.344 -0.251,-2.022 -0.994,-2.665 -0.59,-0.535 -1.278,-0.71 -2.413,-0.645 -1.333,0.076 -2.153,0.655 -2.819,1.955 -0.349,0.699 -0.764,2.293 -0.862,3.353 -0.077,0.764 -0.088,0.786 -0.361,0.71 -0.153,-0.032 -0.939,-0.251 -1.758,-0.47 l -1.486,-0.404 0.033,-0.589 c 0.054,-0.853 0.317,-2.075 0.667,-3.048 0.851,-2.414 2.642,-4.041 4.98,-4.532 0.983,-0.208 2.741,-0.208 3.713,0 2.403,0.512 4.281,2.337 4.871,4.751 0.099,0.371 0.153,1.157 0.143,2.075 C 0.295,-1.201 0.252,-0.841 0,0"
             style="fill:#231f20;fill-opacity:1;fill-rule:nonzero;stroke:none"
             id="path72" />
        </g>
        <g
           id="g74"
           transform="translate(194.7354,51.9473)">
          <path
             d="m 0,0 v -14.308 -14.307 h 5.57 5.571 v 1.42 1.42 H 7.536 3.932 v 5.242 5.242 h 2.894 2.895 v 1.43 1.519 L 6.835,-12.451 H 3.932 v 4.761 4.741 l 3.613,-0.109 3.596,0.023 V -1.518 0 L 5.57,0 Z"
             style="fill:#231f20;fill-opacity:1;fill-rule:nonzero;stroke:none"
             id="path76" />
        </g>
        <g
           id="g78"
           transform="translate(162.2949,121.1035)">
          <path
             d="M 0,0 C 1.092,0.372 2.118,0.175 2.971,-0.568 3.658,-1.179 3.932,-1.747 3.997,-2.687 4.062,-3.681 3.778,-4.391 3.036,-5.079 1.528,-6.487 -0.853,-5.996 -1.726,-4.106 -2.458,-2.544 -1.628,-0.557 0,0 m -1.813,-14.646 0.743,-1.529 c 1.135,-2.338 1.365,-2.37 2.588,-0.339 1.299,2.174 2.14,4.522 2.337,6.575 0.066,0.655 0.121,0.787 0.546,1.267 0.262,0.295 0.753,0.962 1.092,1.464 1.671,2.479 3.124,6.64 3.703,10.594 C 9.469,5.221 9.567,5.057 8.257,4.97 3.102,4.631 -1.988,2.982 -4.74,0.787 -5.112,0.492 -5.243,0.459 -6.27,0.382 c -2.02,-0.12 -4.084,-0.731 -6.204,-1.813 -1.386,-0.72 -1.637,-0.917 -1.637,-1.299 0,-0.394 0.12,-0.492 1.791,-1.431 l 1.409,-0.797 -0.274,-0.229 c -0.764,-0.645 -1.026,-1.563 -0.666,-2.371 0.121,-0.262 0.415,-0.699 0.666,-0.972 0.383,-0.437 0.449,-0.59 0.514,-1.212 l 0.076,-0.721 -1.845,-1.365 c -1.005,-0.754 -1.956,-1.442 -2.109,-1.54 l -0.283,-0.186 -0.623,1.409 c -1.726,3.845 -4.707,7.733 -8.027,10.474 -4.052,3.331 -9.077,5.57 -14.276,6.379 -1.354,0.207 -5.592,0.36 -6.607,0.24 -3.178,-0.371 -5.068,-0.776 -7.351,-1.562 -6.051,-2.097 -11.271,-6.193 -14.854,-11.643 -1.594,-2.435 -3.08,-5.788 -3.789,-8.53 -1.628,-6.28 -1.191,-12.44 1.332,-18.818 l 0.142,-0.372 1.747,0.066 c 4.686,0.175 12.047,1.627 20.828,4.118 2.764,0.775 7.843,2.337 9.797,2.992 0.634,0.218 1.159,0.371 1.18,0.349 0.055,-0.043 -3.451,-1.671 -5.974,-2.763 -9.688,-4.204 -18.207,-6.837 -25.94,-8.027 -2.162,-0.328 -6.214,-0.361 -7.427,-0.055 -2.173,0.535 -3.276,1.66 -3.058,3.124 0.197,1.343 1.911,3.833 4.194,6.072 0.71,0.699 0.765,0.841 0.579,1.835 l -0.077,0.415 -1.146,-0.939 c -10.442,-8.596 -12.233,-15.007 -4.511,-16.165 1.387,-0.207 4.467,-0.207 6.367,0 7.045,0.776 17.541,3.703 26.934,7.515 13.958,5.657 28.047,14.253 38.391,23.438 0.415,0.361 0.523,0.415 0.578,0.273 0.033,-0.098 0.044,-0.218 0,-0.273 -0.032,-0.054 0.055,-0.098 0.197,-0.098 0.164,0 0.448,-0.196 0.797,-0.557 1.136,-1.158 2.294,-1.267 3.288,-0.306 z"
             style="fill:#231f20;fill-opacity:1;fill-rule:nonzero;stroke:none"
             id="path80" />
        </g>
        <g
           id="g82"
           transform="translate(169.0576,40.8838)">
          <path
             d="M 0,0 C -0.699,-0.853 -2.107,-1.268 -4.271,-1.278 H -5.45 V 3.483 8.257 L -3.778,8.191 C -1.168,8.104 -0.284,7.722 0.328,6.443 1.19,4.663 1.016,1.223 0,0 m 3.206,-10.39 c -1.061,3.768 -1.949,6.9 -1.981,6.976 -0.034,0.088 0.197,0.252 0.59,0.438 1.336,0.635 2.279,2.026 2.684,3.964 0.186,0.899 0.208,1.348 0.164,2.869 -0.033,1.205 -0.109,2.027 -0.23,2.464 -0.668,2.388 -2.059,3.713 -4.643,4.404 -1.041,0.284 -1.161,0.284 -5.191,0.338 l -4.09,0.044 v -14.33 -14.329 h 2.02 2.021 v 6.69 6.744 h 1.536 c 1.37,0 1.546,-0.022 1.611,-0.187 0.044,-0.109 0.9,-3.135 1.898,-6.721 l 1.82,-6.526 1.901,-0.033 c 1.818,-0.021 1.938,-0.011 1.883,0.164 -0.032,0.11 -0.92,3.275 -1.993,7.031"
             style="fill:#231f20;fill-opacity:1;fill-rule:nonzero;stroke:none"
             id="path84" />
        </g>
        <g
           id="g86"
           transform="translate(41.6309,23.332)">
          <path
             d="m 0,0 h -1.842 l -0.176,0.361 c -0.087,0.187 -1.14,2.61 -2.335,5.384 -1.567,3.607 -2.204,4.966 -2.258,4.823 -0.044,-0.12 -0.899,-2.4 -1.897,-5.087 -1.009,-2.685 -1.886,-5.009 -1.951,-5.174 L -10.569,0 h -1.864 c -1.732,0 -1.864,0.011 -1.798,0.197 0.044,0.099 1.392,3.476 2.993,7.499 l 2.927,7.325 -2.872,6.654 c -1.568,3.673 -2.895,6.754 -2.927,6.863 -0.077,0.176 0.054,0.187 1.787,0.187 h 1.88 l 2.042,-4.873 c 1.125,-2.632 2.108,-4.893 2.173,-5.035 0.121,-0.229 0.339,0.284 2.098,4.773 l 1.955,5.025 1.867,0.11 h 1.909 l -2.851,-6.6 c -1.568,-3.641 -2.917,-6.809 -3.015,-7.05 L -4.418,14.637 -1.294,7.356 C 0.427,3.354 1.842,0.065 1.842,0.044 1.842,0.021 1.008,0 0,0"
             style="fill:#231f20;fill-opacity:1;fill-rule:nonzero;stroke:none"
             id="path88" />
        </g>
        <g
           id="g90"
           transform="translate(57.3374,50.4727)">
          <path
             d="M 0,0 V -1.475 H -3.55 -7.1 v -4.751 -4.751 h 2.84 2.84 v -1.419 -1.42 H -4.26 -7.1 v -5.243 -5.242 H -3.55 0 v -1.42 -1.42 h -5.57 -5.571 V -12.833 1.475 H -5.57 0 Z"
             style="fill:#231f20;fill-opacity:1;fill-rule:nonzero;stroke:none"
             id="path92" />
        </g>
        <g
           id="g94"
           transform="translate(71.9727,24.752)">
          <path
             d="m 0,0 v -1.42 h -5.679 -5.68 v 14.308 14.307 h 2.021 2.02 V 14.308 1.42 H -3.659 0 Z"
             style="fill:#231f20;fill-opacity:1;fill-rule:nonzero;stroke:none"
             id="path96" />
        </g>
        <g
           id="g98"
           transform="translate(78.7441,37.6396)">
          <path
             d="M 0,0 V -14.308 H -1.966 -3.932 V 0 14.308 H -1.966 0 Z"
             style="fill:#231f20;fill-opacity:1;fill-rule:nonzero;stroke:none"
             id="path100" />
        </g>
        <g
           id="g102"
           transform="translate(95.1138,24.8594)">
          <path
             d="m 0,0 c -1.245,-1.245 -2.84,-1.835 -4.958,-1.846 -4.26,-0.01 -6.838,2.48 -7.504,7.242 -0.077,0.545 -0.087,1.004 -0.044,1.059 0.055,0.044 0.787,0.262 1.628,0.481 0.84,0.229 1.605,0.425 1.703,0.459 0.142,0.042 0.186,-0.088 0.241,-0.744 0.087,-1.07 0.546,-2.806 0.895,-3.462 0.372,-0.666 0.951,-1.266 1.518,-1.573 0.383,-0.207 0.623,-0.24 1.595,-0.24 0.972,0 1.212,0.033 1.606,0.24 0.568,0.318 1.081,0.918 1.299,1.584 0.241,0.743 0.219,2.37 -0.054,3.255 -0.437,1.398 -1.136,2.174 -5.101,5.691 -3.932,3.472 -4.358,3.964 -4.926,5.722 -0.382,1.18 -0.48,3.441 -0.207,4.686 0.524,2.348 2.053,3.943 4.347,4.544 1.004,0.261 3.178,0.284 4.292,0.054 1.89,-0.404 3.276,-1.464 4.085,-3.134 0.459,-0.951 0.83,-2.305 0.95,-3.419 l 0.066,-0.656 -1.671,-0.447 -1.682,-0.448 -0.033,0.339 c -0.087,0.851 -0.492,2.566 -0.743,3.08 -0.546,1.168 -1.616,1.791 -3.047,1.791 -1.42,0 -2.425,-0.579 -2.895,-1.66 -0.207,-0.492 -0.24,-0.71 -0.196,-1.715 0.033,-0.961 0.087,-1.267 0.328,-1.78 0.393,-0.852 0.819,-1.278 4.237,-4.292 C -0.765,11.73 0.306,10.529 1.125,8.737 1.66,7.58 1.889,6.422 1.878,4.926 1.878,2.807 1.299,1.3 0,0"
             style="fill:#231f20;fill-opacity:1;fill-rule:nonzero;stroke:none"
             id="path104" />
        </g>
        <g
           id="g106"
           transform="translate(97.123,70.459)">
          <path
             d="m 0,0 c -1.321,0.251 -1.431,0.35 -0.535,0.437 1.671,0.174 5.668,1.081 8.508,1.921 7.099,2.131 13.959,5.276 20.807,9.568 0.993,0.623 2.217,1.42 2.73,1.781 0.961,0.677 0.983,0.699 0.983,0.622 0,-0.076 -3.233,-2.556 -4.795,-3.669 C 19.245,4.62 11.49,0.928 5.308,0 3.725,-0.229 1.256,-0.229 0,0"
             style="fill:#231f20;fill-opacity:1;fill-rule:nonzero;stroke:none"
             id="path108" />
        </g>
        <g
           id="g110"
           transform="translate(139.1074,38.1855)">
          <path
             d="m 0,0 c -1.671,-7.536 -3.091,-13.969 -3.156,-14.274 l -0.12,-0.58 h -1.77 -1.769 l -3.146,14.123 c -1.736,7.754 -3.178,14.198 -3.2,14.307 -0.055,0.175 0.087,0.186 1.835,0.186 h 1.889 L -7.198,3.276 c 1.311,-6.116 2.272,-10.408 2.316,-10.288 0.043,0.099 1.016,4.806 2.162,10.452 1.147,5.647 2.108,10.278 2.119,10.3 0.022,0.011 0.841,0.011 1.835,0 l 1.791,-0.033 z"
             style="fill:#231f20;fill-opacity:1;fill-rule:nonzero;stroke:none"
             id="path112" />
        </g>
        <g
           id="g114"
           transform="translate(140.8652,76.2036)">
          <path
             d="m 0,0 c -4.444,-4.445 -9.928,-7.208 -16.35,-8.257 -1.463,-0.23 -5.679,-0.327 -7.274,-0.163 -1.758,0.196 -4.172,0.698 -5.777,1.212 -1.508,0.48 -3.255,1.179 -3.245,1.299 0,0.033 1.563,0.841 3.463,1.781 10.824,5.351 21.418,12.385 30.013,19.91 2.13,1.857 4.981,4.566 6.379,6.04 0.634,0.666 1.18,1.212 1.212,1.212 C 8.465,23.045 8.53,22.466 8.574,21.768 8.661,20.238 8.486,17.617 8.181,15.848 7.493,11.807 5.953,7.918 3.735,4.587 2.436,2.643 1.529,1.529 0,0"
             style="fill:#231f20;fill-opacity:1;fill-rule:nonzero;stroke:none"
             id="path116" />
        </g>
        <g
           id="g118"
           transform="translate(156.3994,24.752)">
          <path
             d="m 0,0 v -1.42 h -5.57 -5.571 v 14.308 14.307 h 5.516 5.516 v -1.474 -1.475 h -3.55 -3.55 v -4.751 -4.751 h 2.895 2.894 v -1.42 -1.42 H -4.314 -7.209 V 6.662 1.42 h 3.605 L 0,1.42 Z"
             style="fill:#231f20;fill-opacity:1;fill-rule:nonzero;stroke:none"
             id="path120" />
        </g>
        <g
           id="g122"
           transform="translate(187.2295,23.374)">
          <path
             d="M 0,0 C -1.158,-0.371 -3.102,-0.47 -4.369,-0.207 -6.411,0.219 -8.104,1.529 -9,3.386 -9.546,4.5 -9.982,6.16 -10.026,7.22 l -0.023,0.764 1.694,0.458 c 0.928,0.252 1.704,0.449 1.725,0.438 0.011,-0.023 0.099,-0.514 0.186,-1.093 0.317,-2.13 0.786,-3.308 1.628,-4.15 0.589,-0.59 1.266,-0.83 2.347,-0.83 1.966,0.011 2.939,0.994 3.048,3.037 0.087,1.627 -0.284,2.785 -1.267,3.953 -0.797,0.939 -1.3,1.409 -4.238,3.998 -1.496,1.332 -2.981,2.697 -3.299,3.047 -0.71,0.797 -1.277,1.879 -1.561,2.97 -0.295,1.115 -0.328,3.354 -0.055,4.402 0.569,2.239 2.097,3.779 4.347,4.369 1.005,0.262 3.179,0.284 4.293,0.055 1.78,-0.372 3.145,-1.409 3.975,-3.004 0.481,-0.906 0.917,-2.403 1.048,-3.55 L 3.888,21.429 2.217,20.981 0.546,20.533 0.459,21.036 c -0.394,2.402 -0.754,3.342 -1.529,3.997 -0.623,0.535 -1.42,0.754 -2.534,0.689 -1.333,-0.088 -2.13,-0.579 -2.611,-1.618 -0.316,-0.709 -0.306,-2.424 0.022,-3.276 0.361,-0.917 1.027,-1.616 4.172,-4.369 C 1.06,13.762 1.9,12.898 2.851,11.468 3.91,9.885 4.314,8.486 4.314,6.434 4.314,3.222 2.752,0.906 0,0"
             style="fill:#231f20;fill-opacity:1;fill-rule:nonzero;stroke:none"
             id="path124" />
        </g>
        <g
           id="g126"
           transform="translate(205.876,50.4727)">
          <path
             d="m 0,0 v -1.475 l -3.596,-0.108 h -3.613 v -4.633 -4.761 h 2.903 l 2.886,-0.021 v -1.409 -1.409 h -2.894 -2.895 v -5.243 -5.242 H -3.604 0 v -1.42 -1.42 h -5.57 -5.571 V -12.833 1.475 H -5.57 0 Z"
             style="fill:#231f20;fill-opacity:1;fill-rule:nonzero;stroke:none"
             id="path128" />
        </g>
        <g
           id="g130"
           transform="translate(239.9385,27.9287)">
          <path
             d="m 0,0 c -0.59,-2.414 -2.468,-4.238 -4.871,-4.751 -0.972,-0.208 -2.731,-0.208 -3.713,0 -2.338,0.491 -4.129,2.118 -4.98,4.532 -0.35,0.973 -0.613,2.196 -0.667,3.048 l -0.033,0.589 1.486,0.404 c 0.819,0.219 1.605,0.438 1.757,0.47 0.274,0.076 0.285,0.055 0.362,-0.71 0.097,-1.06 0.513,-2.654 0.862,-3.353 0.666,-1.299 1.485,-1.878 2.818,-1.955 1.136,-0.065 1.824,0.11 2.414,0.645 0.743,0.644 0.994,1.321 0.994,2.665 0,2.544 -0.481,3.222 -5.516,7.667 -3.691,3.255 -4.347,4.052 -4.86,5.941 -0.241,0.885 -0.284,3.572 -0.055,4.467 0.546,2.239 2.195,3.866 4.489,4.424 0.863,0.207 3.222,0.207 4.183,-0.011 2.392,-0.535 3.855,-2.032 4.609,-4.718 0.339,-1.202 0.503,-2.425 0.339,-2.491 -0.634,-0.218 -3.244,-0.874 -3.276,-0.819 -0.023,0.033 -0.077,0.383 -0.11,0.775 -0.328,2.993 -1.497,4.369 -3.724,4.369 -1.016,0 -1.737,-0.261 -2.294,-0.819 -0.655,-0.644 -0.862,-1.387 -0.786,-2.72 0.098,-1.845 0.404,-2.238 4.314,-5.678 C -2.96,9.076 -2.73,8.857 -1.824,7.656 -0.961,6.531 -0.513,5.68 -0.164,4.532 0.088,3.691 0.131,3.331 0.143,2.075 0.153,1.157 0.099,0.371 0,0"
             style="fill:#231f20;fill-opacity:1;fill-rule:nonzero;stroke:none"
             id="path132" />
        </g>
        <g
           id="g134"
           transform="translate(165.3311,116.0249)">
          <path
             d="m 0,0 c -1.508,-1.409 -3.889,-0.917 -4.762,0.972 -0.732,1.562 0.098,3.55 1.726,4.107 1.092,0.371 2.118,0.174 2.971,-0.568 C 0.622,3.899 0.896,3.332 0.961,2.392 1.026,1.398 0.742,0.688 0,0 M 5.221,10.048 C 0.065,9.71 -5.024,8.061 -7.776,5.865 -8.148,5.57 -8.279,5.538 -9.306,5.461 c -2.02,-0.12 -4.085,-0.732 -6.204,-1.813 -1.386,-0.721 -1.637,-0.918 -1.637,-1.3 0,-0.393 0.12,-0.491 1.791,-1.431 l 1.409,-0.797 -0.274,-0.229 c -0.764,-0.644 -1.026,-1.562 -0.666,-2.37 0.12,-0.262 0.415,-0.699 0.666,-0.972 0.383,-0.437 0.449,-0.59 0.514,-1.213 l 0.076,-0.72 -1.846,-1.366 c -1.004,-0.753 -1.955,-1.441 -2.108,-1.54 l -0.283,-0.185 -0.623,1.409 c -1.726,3.844 -4.707,7.733 -8.028,10.474 -4.051,3.331 -9.076,5.57 -14.275,6.378 -1.354,0.208 -5.592,0.36 -6.607,0.24 -3.179,-0.371 -5.068,-0.775 -7.351,-1.561 -6.051,-2.097 -11.271,-6.193 -14.854,-11.643 -1.594,-2.436 -3.08,-5.789 -3.79,-8.53 -1.627,-6.28 -1.19,-12.44 1.333,-18.819 l 0.142,-0.371 1.747,0.065 c 4.686,0.175 12.047,1.628 20.828,4.118 2.763,0.776 7.843,2.338 9.797,2.993 0.634,0.218 1.158,0.371 1.18,0.349 0.055,-0.044 -3.451,-1.671 -5.974,-2.763 -9.688,-4.205 -18.207,-6.837 -25.94,-8.028 -2.162,-0.327 -6.215,-0.36 -7.427,-0.054 -2.173,0.535 -3.276,1.66 -3.058,3.123 0.197,1.344 1.911,3.834 4.194,6.073 0.71,0.699 0.764,0.841 0.579,1.835 l -0.077,0.415 -1.146,-0.939 c -10.442,-8.596 -12.233,-15.007 -4.511,-16.165 1.387,-0.207 4.467,-0.207 6.367,0 7.045,0.775 17.541,3.703 26.934,7.514 13.958,5.658 28.047,14.254 38.391,23.439 0.415,0.36 0.523,0.415 0.578,0.273 0.033,-0.099 0.044,-0.219 0,-0.273 -0.032,-0.055 0.055,-0.098 0.197,-0.098 0.163,0 0.448,-0.197 0.797,-0.558 1.136,-1.157 2.294,-1.266 3.288,-0.305 l 0.327,0.317 0.744,-1.53 c 1.135,-2.337 1.365,-2.37 2.587,-0.338 1.3,2.173 2.141,4.521 2.338,6.575 0.066,0.655 0.12,0.786 0.546,1.267 0.262,0.295 0.753,0.961 1.092,1.463 1.671,2.48 3.124,6.641 3.703,10.595 0.273,1.834 0.371,1.671 -0.939,1.583"
             style="fill:#231f20;fill-opacity:1;fill-rule:nonzero;stroke:none"
             id="path136" />
        </g>
        <g
           id="g138"
           transform="translate(119.2402,29.6211)">
          <path
             d="m 0,0 c -0.186,-1.321 -0.426,-1.9 -1.038,-2.533 -0.732,-0.754 -1.387,-0.95 -2.938,-0.885 -0.928,0.032 -1.19,0.087 -1.66,0.338 -1.114,0.568 -1.583,1.54 -1.791,3.659 -0.142,1.464 -0.142,13.435 0,14.975 0.054,0.622 0.175,1.397 0.273,1.714 0.317,1.114 1.158,1.868 2.348,2.119 0.798,0.164 2.294,0.054 2.938,-0.23 C -0.797,18.699 -0.24,17.792 0,16.165 0.142,15.16 0.142,1.017 0,0 m 3.703,17.366 c -0.645,2.556 -2.261,4.271 -4.631,4.926 -0.448,0.12 -1.224,0.196 -2.512,0.219 -2.218,0.044 -2.96,-0.088 -4.304,-0.733 -1.944,-0.95 -3.025,-2.577 -3.582,-5.427 -0.218,-1.104 -0.339,-12.561 -0.153,-14.942 0.229,-2.96 0.896,-4.783 2.239,-6.105 0.841,-0.83 1.704,-1.311 2.916,-1.65 1.005,-0.283 4.216,-0.295 5.232,-0.01 2.97,0.808 4.642,3.069 5.122,6.958 0.076,0.556 0.12,3.548 0.12,7.481 0,6.738 -0.044,7.678 -0.447,9.283"
             style="fill:#231f20;fill-opacity:1;fill-rule:nonzero;stroke:none"
             id="path140" />
        </g>
        <g
           id="g142"
           transform="translate(18.2339,33.3799)">
          <path
             d="m 0,0 c -1.289,-0.011 -2.359,-0.011 -2.381,0 -0.011,0.022 0.503,2.895 1.136,6.39 0.644,3.506 1.19,6.301 1.212,6.225 C 0,12.55 0.535,9.688 1.18,6.259 L 2.337,0.033 Z M 7.914,-9.688 C 7.87,-9.501 6.504,-3.063 4.864,4.599 L 1.88,18.535 -0.043,18.567 c -1.771,0.023 -1.935,0.011 -1.99,-0.164 -0.033,-0.109 -1.388,-6.47 -3.017,-14.132 -1.617,-7.663 -2.972,-14.024 -2.994,-14.123 -0.044,-0.185 0.098,-0.196 1.836,-0.196 h 1.883 l 0.284,1.507 c 0.164,0.819 0.48,2.447 0.699,3.604 l 0.404,2.097 h 2.873 c 1.572,0 2.894,-0.043 2.927,-0.087 C 2.895,-2.981 3.2,-4.598 3.55,-6.531 l 0.622,-3.517 h 1.905 1.902 z"
             style="fill:#231f20;fill-opacity:1;fill-rule:nonzero;stroke:none"
             id="path144" />
        </g>
        <g
           id="g146"
           transform="translate(169.0576,40.8838)">
          <path
             d="M 0,0 C -0.699,-0.853 -2.107,-1.268 -4.271,-1.278 H -5.45 V 3.483 8.257 L -3.778,8.191 C -1.168,8.104 -0.284,7.722 0.328,6.443 1.19,4.663 1.016,1.223 0,0 m 5.21,-17.388 c -0.033,0.109 -0.917,3.266 -1.987,7.012 -1.06,3.757 -1.945,6.881 -1.978,6.957 -0.032,0.088 0.197,0.251 0.59,0.437 1.333,0.633 2.271,2.021 2.676,3.954 0.185,0.895 0.208,1.343 0.164,2.861 -0.033,1.202 -0.11,2.021 -0.23,2.458 -0.666,2.381 -2.052,3.702 -4.631,4.391 -1.037,0.284 -1.157,0.284 -5.176,0.338 l -4.129,0.043 V -3.255 -17.552 h 2.02 2.021 v 6.717 6.717 h 1.501 c 1.367,0 1.542,-0.022 1.607,-0.186 0.044,-0.109 0.898,-3.129 1.893,-6.706 l 1.816,-6.509 1.964,-0.033 c 1.814,-0.021 1.934,-0.01 1.879,0.164"
             style="fill:#231f20;fill-opacity:1;fill-rule:nonzero;stroke:none"
             id="path148" />
        </g>
        <g
           id="g150"
           transform="translate(217.9307,33.4678)">
          <path
             d="m 0,0 c -0.021,-0.022 -1.081,-0.022 -2.37,-0.011 l -2.348,0.032 1.147,6.259 c 0.633,3.429 1.179,6.247 1.213,6.247 C -2.293,12.527 0.055,0.055 0,0 M 5.577,-9.732 C 5.556,-9.559 4.195,-3.15 2.553,4.531 l -2.982,13.948 h -1.925 -1.949 l -0.131,-0.567 c -0.896,-4.15 -5.898,-27.808 -5.898,-27.906 0,-0.11 0.415,-0.142 1.856,-0.142 1.028,0 1.858,0.011 1.858,0.032 0,0.099 1.321,6.925 1.365,7.045 0.032,0.099 0.721,0.131 2.938,0.131 h 2.881 l 0.23,-1.281 c 0.132,-0.712 0.428,-2.322 0.658,-3.594 l 0.405,-2.3 1.887,-0.033 1.875,0.11 z"
             style="fill:#231f20;fill-opacity:1;fill-rule:nonzero;stroke:none"
             id="path152" />
        </g>
      </g>
    </g>
  </g>
</svg>
